<svg xmlns="http://www.w3.org/2000/svg" viewBox="0 0 880 320" font-family="system-ui, -apple-system, sans-serif" font-size="13" role="img" aria-label="Error and log streams">
  <defs>
    <marker id="ar2" viewBox="0 0 10 10" refX="9" refY="5" markerWidth="7" markerHeight="7" orient="auto-start-reverse">
      <path d="M0,0 L10,5 L0,10 z" fill="#7a8190"/>
    </marker>
  </defs>
  <style>
    rect       { rx: 10; ry: 10; fill: #f8f9fb; }
    .title     { font-weight: 700; fill: #1e2329; font-size: 14px; }
    .sub       { fill: #5b6371; font-size: 11px; }
    .typename  { font-family: 'SF Mono', Menlo, monospace; font-size: 11.5px; fill: #2d3748; font-weight: 600; }
    .arrow     { stroke: #7a8190; stroke-width: 1.6; fill: none; marker-end: url(#ar2); }
  </style>

  <rect x="350" y="20" width="180" height="70"/>
  <text class="title" x="440" y="48" text-anchor="middle">mpv engine</text>
  <text class="sub" x="440" y="68" text-anchor="middle">events + property changes</text>

  <rect x="20"  y="200" width="200" height="90"/>
  <text class="title"    x="120" y="225" text-anchor="middle">stream.error</text>
  <text class="typename" x="120" y="245" text-anchor="middle">Stream&lt;MpvPlayerError&gt;</text>
  <text class="sub"      x="120" y="262" text-anchor="middle">sealed:</text>
  <text class="sub"      x="120" y="276" text-anchor="middle">MpvEndFileError | MpvLogError</text>

  <rect x="240" y="200" width="200" height="90"/>
  <text class="title"    x="340" y="225" text-anchor="middle">stream.endFile</text>
  <text class="typename" x="340" y="245" text-anchor="middle">Stream&lt;MpvFileEndedEvent&gt;</text>
  <text class="sub"      x="340" y="262" text-anchor="middle">every file boundary —</text>
  <text class="sub"      x="340" y="276" text-anchor="middle">EOF, stop, error, redirect</text>

  <rect x="460" y="200" width="200" height="90"/>
  <text class="title"    x="560" y="225" text-anchor="middle">stream.audioOutputState</text>
  <text class="typename" x="560" y="245" text-anchor="middle">Stream&lt;AudioOutputState&gt;</text>
  <text class="sub"      x="560" y="262" text-anchor="middle">closed / initializing /</text>
  <text class="sub"      x="560" y="276" text-anchor="middle">active / failed</text>

  <rect x="680" y="200" width="180" height="90"/>
  <text class="title"    x="770" y="225" text-anchor="middle">stream.log</text>
  <text class="typename" x="770" y="244" text-anchor="middle">Stream&lt;MpvLogEntry&gt;</text>
  <text class="sub"      x="770" y="262" text-anchor="middle">+ stream.internalLog</text>
  <text class="sub"      x="770" y="276" text-anchor="middle">(wrapper-side)</text>

  <path class="arrow" d="M440,90 V140 H120 V200"/>
  <path class="arrow" d="M440,90 V140 H340 V200"/>
  <path class="arrow" d="M440,90 V140 H560 V200"/>
  <path class="arrow" d="M440,90 V140 H770 V200"/>
</svg>
