<svg xmlns="http://www.w3.org/2000/svg" viewBox="0 0 700 540" font-family="system-ui, -apple-system, sans-serif" font-size="12" role="img" aria-label="MpvPrefetchState state machine">
  <defs>
    <marker id="a" viewBox="0 0 10 10" refX="9" refY="5" markerWidth="7" markerHeight="7" orient="auto-start-reverse">
      <path d="M0,0 L10,5 L0,10 z" fill="#7a8190"/>
    </marker>
  </defs>
  <style>
    circle     { fill: #f8f9fb; }
    .lbl       { font-weight: 700; fill: #1e2329; font-size: 14px; }
    .sub       { fill: #5b6371; font-size: 10.5px; }
    .arrow     { stroke: #7a8190; stroke-width: 1.6; fill: none; marker-end: url(#a); }
    .edge-text { fill: #5b6371; font-size: 10.5px; }
  </style>

  <circle cx="350" cy="80"  r="56"/>
  <text class="lbl" x="350" y="78"  text-anchor="middle">idle</text>
  <text class="sub" x="350" y="96"  text-anchor="middle">default</text>

  <circle cx="580" cy="240" r="56"/>
  <text class="lbl" x="580" y="238" text-anchor="middle">loading</text>
  <text class="sub" x="580" y="256" text-anchor="middle">opener thread</text>

  <circle cx="470" cy="450" r="56"/>
  <text class="lbl" x="470" y="448" text-anchor="middle">ready</text>
  <text class="sub" x="470" y="466" text-anchor="middle">demuxer + cache OK</text>

  <circle cx="230" cy="450" r="56"/>
  <text class="lbl" x="230" y="448" text-anchor="middle">used</text>
  <text class="sub" x="230" y="466" text-anchor="middle">edge-triggered</text>

  <circle cx="120" cy="240" r="56"/>
  <text class="lbl" x="120" y="238" text-anchor="middle">failed</text>
  <text class="sub" x="120" y="256" text-anchor="middle">edge-triggered</text>

  <path class="arrow" d="M396,112 L534,208"/>
  <text class="edge-text" x="525" y="135" text-anchor="middle">prefetch_next()</text>

  <path class="arrow" d="M554,290 L496,400"/>
  <text class="edge-text" x="595" y="345" text-anchor="middle">demuxer open</text>
  <text class="edge-text" x="595" y="358" text-anchor="middle">+ reader idle</text>

  <path class="arrow" d="M414,450 L286,450"/>
  <text class="edge-text" x="350" y="442" text-anchor="middle">track ended · gapless</text>

  <path class="arrow" d="M247,397 L333,133"/>
  <text class="edge-text" x="225" y="265" text-anchor="middle">drops back</text>

  <path class="arrow" d="M524,240 L176,240"/>
  <text class="edge-text" x="350" y="232" text-anchor="middle">opener error</text>

  <path class="arrow" d="M166,208 L304,112"/>
  <text class="edge-text" x="180" y="135" text-anchor="middle">drops back</text>
</svg>
