<svg xmlns="http://www.w3.org/2000/svg" viewBox="0 0 880 180" font-family="system-ui, -apple-system, sans-serif" font-size="13" role="img" aria-label="Player lifecycle">
  <defs>
    <marker id="arrow" viewBox="0 0 10 10" refX="9" refY="5" markerWidth="7" markerHeight="7" orient="auto-start-reverse">
      <path d="M0,0 L10,5 L0,10 z" fill="#7a8190"/>
    </marker>
  </defs>
  <style>
    rect      { fill: #f8f9fb; rx: 10; ry: 10; }
    .title    { font-weight: 600; fill: #1e2329; }
    .subtitle { font-size: 11px; fill: #5b6371; }
    .arrow    { stroke: #7a8190; stroke-width: 1.6; fill: none; marker-end: url(#arrow); }
  </style>

  <rect x="20" y="40" width="140" height="100"/>
  <text class="title" x="90" y="80" text-anchor="middle">MpvAudioKit</text>
  <text class="title" x="90" y="98" text-anchor="middle">.ensureInitialized()</text>
  <text class="subtitle" x="90" y="120" text-anchor="middle">once at startup</text>

  <rect x="190" y="40" width="140" height="100"/>
  <text class="title" x="260" y="85" text-anchor="middle">Player()</text>
  <text class="subtitle" x="260" y="105" text-anchor="middle">construct with</text>
  <text class="subtitle" x="260" y="120" text-anchor="middle">PlayerConfiguration</text>

  <rect x="360" y="40" width="140" height="100"/>
  <text class="title" x="430" y="80" text-anchor="middle">player.open(</text>
  <text class="title" x="430" y="98" text-anchor="middle">Media(...))</text>
  <text class="subtitle" x="430" y="120" text-anchor="middle">load + autoPlay</text>

  <rect x="530" y="40" width="170" height="100"/>
  <text class="title" x="615" y="80" text-anchor="middle">player.stream.*</text>
  <text class="subtitle" x="615" y="100" text-anchor="middle">90+ reactive streams</text>
  <text class="subtitle" x="615" y="118" text-anchor="middle">player.state for snapshots</text>

  <rect x="730" y="40" width="130" height="100"/>
  <text class="title" x="795" y="85" text-anchor="middle">player.dispose()</text>
  <text class="subtitle" x="795" y="105" text-anchor="middle">release native</text>
  <text class="subtitle" x="795" y="120" text-anchor="middle">handles + AO lock</text>

  <path class="arrow" d="M160,90 L190,90"/>
  <path class="arrow" d="M330,90 L360,90"/>
  <path class="arrow" d="M500,90 L530,90"/>
  <path class="arrow" d="M700,90 L730,90"/>
</svg>
